<svg xmlns="http://www.w3.org/2000/svg" width="800" height="355"><path d="M95,402L-21,422L209,398Z" fill="#7ba06b" stroke="#7ba06b" stroke-width="1.51"/><path d="M-54,-69L-9,-65L355,-66Z" fill="#f5fbc9" stroke="#f5fbc9" stroke-width="1.51"/><path d="M330,394L284,394L467,411Z" fill="#4b8e56" stroke="#4b8e56" stroke-width="1.51"/><path d="M284,394L209,398L467,411Z" fill="#549159" stroke="#549159" stroke-width="1.51"/><path d="M209,398L-21,422L467,411Z" fill="#679760" stroke="#679760" stroke-width="1.51"/><path d="M467,411L-21,422L573,417Z" fill="#4e8b55" stroke="#4e8b55" stroke-width="1.51"/><path d="M449,-62L534,-52L590,-55Z" fill="#a3d49a" stroke="#a3d49a" stroke-width="1.51"/><path d="M355,-66L449,-62L763,-59Z" fill="#a4d59c" stroke="#a4d59c" stroke-width="1.51"/><path d="M449,-62L590,-55L763,-59Z" fill="#9ac791" stroke="#9ac791" stroke-width="1.51"/><path d="M647,-52L727,-53L763,-59Z" fill="#8eb787" stroke="#8eb787" stroke-width="1.51"/><path d="M590,-55L647,-52L763,-59Z" fill="#92bd8a" stroke="#92bd8a" stroke-width="1.51"/><path d="M635,401L573,417L765,400Z" fill="#0f6737" stroke="#0f6737" stroke-width="1.51"/><path d="M808,387L765,400L851,389Z" fill="#005730" stroke="#005730" stroke-width="1.51"/><path d="M834,225L858,282L862,153Z" fill="#2d7d47" stroke="#2d7d47" stroke-width="1.51"/><path d="M853,163L834,225L862,153Z" fill="#3f8650" stroke="#3f8650" stroke-width="1.51"/><path d="M862,153L858,282L864,295Z" fill="#217642" stroke="#217642" stroke-width="1.51"/><path d="M815,23L828,61L870,-1Z" fill="#789f69" stroke="#789f69" stroke-width="1.51"/><path d="M821,-1L815,23L870,-1Z" fill="#7da16d" stroke="#7da16d" stroke-width="1.51"/><path d="M817,-37L821,-1L870,-1Z" fill="#81a370" stroke="#81a370" stroke-width="1.51"/><path d="M828,61L857,99L870,-1Z" fill="#719a64" stroke="#719a64" stroke-width="1.51"/><path d="M857,99L862,153L870,-1Z" fill="#66945f" stroke="#66945f" stroke-width="1.51"/><path d="M763,-59L817,-37L871,-44Z" fill="#84a77d" stroke="#84a77d" stroke-width="1.51"/><path d="M817,-37L870,-1L871,-44Z" fill="#80a074" stroke="#80a074" stroke-width="1.51"/><path d="M864,295L819,350L871,357Z" fill="#086034" stroke="#086034" stroke-width="1.51"/><path d="M819,350L851,389L871,357Z" fill="#005931" stroke="#005931" stroke-width="1.51"/><path d="M870,-1L862,153L871,357Z" fill="#438551" stroke="#438551" stroke-width="1.51"/><path d="M862,153L864,295L871,357Z" fill="#1a6f3d" stroke="#1a6f3d" stroke-width="1.51"/><path d="M871,-44L870,-1L871,357Z" fill="#5e905b" stroke="#5e905b" stroke-width="1.51"/><path d="M857,99L812,162L862,153Z" fill="#528e57" stroke="#528e57" stroke-width="1.51"/><path d="M812,162L834,225L853,163Z" fill="#3e8751" stroke="#3e8751" stroke-width="1.51"/><path d="M792,125L812,162L857,99Z" fill="#57945a" stroke="#57945a" stroke-width="1.51"/><path d="M834,225L792,265L858,282Z" fill="#1e7741" stroke="#1e7741" stroke-width="1.51"/><path d="M812,162L853,163L862,153Z" fill="#498b54" stroke="#498b54" stroke-width="1.51"/><path d="M858,282L788,305L864,295Z" fill="#156b39" stroke="#156b39" stroke-width="1.51"/><path d="M788,305L819,350L864,295Z" fill="#0e6837" stroke="#0e6837" stroke-width="1.51"/><path d="M795,242L792,265L834,225Z" fill="#227f45" stroke="#227f45" stroke-width="1.51"/><path d="M792,265L788,305L858,282Z" fill="#18723d" stroke="#18723d" stroke-width="1.51"/><path d="M828,61L786,109L857,99Z" fill="#669960" stroke="#669960" stroke-width="1.51"/><path d="M786,109L792,125L857,99Z" fill="#5f985e" stroke="#5f985e" stroke-width="1.51"/><path d="M819,350L808,387L851,389Z" fill="#005931" stroke="#005931" stroke-width="1.51"/><path d="M766,179L768,219L812,162Z" fill="#3f9053" stroke="#3f9053" stroke-width="1.51"/><path d="M812,162L768,219L834,225Z" fill="#37884e" stroke="#37884e" stroke-width="1.51"/><path d="M768,219L795,242L834,225Z" fill="#2a8449" stroke="#2a8449" stroke-width="1.51"/><path d="M815,23L758,20L828,61Z" fill="#79a46b" stroke="#79a46b" stroke-width="1.51"/><path d="M758,20L786,109L828,61Z" fill="#72a367" stroke="#72a367" stroke-width="1.51"/><path d="M735,387L635,401L765,400Z" fill="#076335" stroke="#076335" stroke-width="1.51"/><path d="M763,351L808,387L819,350Z" fill="#006134" stroke="#006134" stroke-width="1.51"/><path d="M788,305L763,351L819,350Z" fill="#096837" stroke="#096837" stroke-width="1.51"/><path d="M817,-37L768,-13L821,-1Z" fill="#84a874" stroke="#84a874" stroke-width="1.51"/><path d="M768,-13L815,23L821,-1Z" fill="#81a76f" stroke="#81a76f" stroke-width="1.51"/><path d="M768,-13L758,20L815,23Z" fill="#80aa70" stroke="#80aa70" stroke-width="1.51"/><path d="M763,-59L768,-13L817,-37Z" fill="#86ac7c" stroke="#86ac7c" stroke-width="1.51"/><path d="M758,20L742,105L786,109Z" fill="#6fa666" stroke="#6fa666" stroke-width="1.51"/><path d="M792,125L766,179L812,162Z" fill="#4e9458" stroke="#4e9458" stroke-width="1.51"/><path d="M756,137L766,179L792,125Z" fill="#52985b" stroke="#52985b" stroke-width="1.51"/><path d="M763,351L765,400L808,387Z" fill="#006033" stroke="#006033" stroke-width="1.51"/><path d="M711,50L742,105L758,20Z" fill="#78ac6b" stroke="#78ac6b" stroke-width="1.51"/><path d="M769,269L788,305L792,265Z" fill="#1a7840" stroke="#1a7840" stroke-width="1.51"/><path d="M769,269L792,265L795,242Z" fill="#1f7e44" stroke="#1f7e44" stroke-width="1.51"/><path d="M768,219L769,269L795,242Z" fill="#238447" stroke="#238447" stroke-width="1.51"/><path d="M769,269L752,290L788,305Z" fill="#18773e" stroke="#18773e" stroke-width="1.51"/><path d="M786,109L756,137L792,125Z" fill="#5c9c5e" stroke="#5c9c5e" stroke-width="1.51"/><path d="M657,387L635,401L735,387Z" fill="#0d6938" stroke="#0d6938" stroke-width="1.51"/><path d="M752,290L763,351L788,305Z" fill="#10713a" stroke="#10713a" stroke-width="1.51"/><path d="M742,105L756,137L786,109Z" fill="#609f60" stroke="#609f60" stroke-width="1.51"/><path d="M711,50L733,103L742,105Z" fill="#6ea967" stroke="#6ea967" stroke-width="1.51"/><path d="M752,290L699,339L763,351Z" fill="#0f723b" stroke="#0f723b" stroke-width="1.51"/><path d="M763,351L735,387L765,400Z" fill="#006335" stroke="#006335" stroke-width="1.51"/><path d="M756,137L698,169L766,179Z" fill="#4e9a5a" stroke="#4e9a5a" stroke-width="1.51"/><path d="M721,-13L758,20L768,-13Z" fill="#86b074" stroke="#86b074" stroke-width="1.51"/><path d="M763,-59L727,-53L768,-13Z" fill="#89b180" stroke="#89b180" stroke-width="1.51"/><path d="M727,-53L721,-13L768,-13Z" fill="#8ab37c" stroke="#8ab37c" stroke-width="1.51"/><path d="M697,213L697,255L768,219Z" fill="#2f8f4e" stroke="#2f8f4e" stroke-width="1.51"/><path d="M766,179L697,213L768,219Z" fill="#399252" stroke="#399252" stroke-width="1.51"/><path d="M768,219L697,255L769,269Z" fill="#248748" stroke="#248748" stroke-width="1.51"/><path d="M697,255L752,290L769,269Z" fill="#1f8144" stroke="#1f8144" stroke-width="1.51"/><path d="M698,169L697,213L766,179Z" fill="#439857" stroke="#439857" stroke-width="1.51"/><path d="M693,313L699,339L752,290Z" fill="#16773e" stroke="#16773e" stroke-width="1.51"/><path d="M742,105L730,115L756,137Z" fill="#61a261" stroke="#61a261" stroke-width="1.51"/><path d="M699,339L735,387L763,351Z" fill="#056b39" stroke="#056b39" stroke-width="1.51"/><path d="M721,-13L711,50L758,20Z" fill="#83b171" stroke="#83b171" stroke-width="1.51"/><path d="M730,115L698,169L756,137Z" fill="#58a05f" stroke="#58a05f" stroke-width="1.51"/><path d="M697,255L693,313L752,290Z" fill="#1e7f42" stroke="#1e7f42" stroke-width="1.51"/><path d="M689,5L711,50L721,-13Z" fill="#86b474" stroke="#86b474" stroke-width="1.51"/><path d="M647,-52L686,-38L727,-53Z" fill="#90ba86" stroke="#90ba86" stroke-width="1.51"/><path d="M699,339L691,354L735,387Z" fill="#096e3a" stroke="#096e3a" stroke-width="1.51"/><path d="M733,103L730,115L742,105Z" fill="#66a563" stroke="#66a563" stroke-width="1.51"/><path d="M670,140L698,169L730,115Z" fill="#5ba360" stroke="#5ba360" stroke-width="1.51"/><path d="M711,50L662,75L733,103Z" fill="#75ad6a" stroke="#75ad6a" stroke-width="1.51"/><path d="M691,354L657,387L735,387Z" fill="#0a6b38" stroke="#0a6b38" stroke-width="1.51"/><path d="M686,-38L721,-13L727,-53Z" fill="#8db680" stroke="#8db680" stroke-width="1.51"/><path d="M662,75L730,115L733,103Z" fill="#6caa66" stroke="#6caa66" stroke-width="1.51"/><path d="M662,75L670,140L730,115Z" fill="#6aaa66" stroke="#6aaa66" stroke-width="1.51"/><path d="M689,5L672,39L711,50Z" fill="#84b472" stroke="#84b472" stroke-width="1.51"/><path d="M686,-38L689,5L721,-13Z" fill="#8db77b" stroke="#8db77b" stroke-width="1.51"/><path d="M111,400L95,402L209,398Z" fill="#76a068" stroke="#76a068" stroke-width="1.51"/><path d="M660,278L693,313L697,255Z" fill="#238444" stroke="#238444" stroke-width="1.51"/><path d="M697,213L669,224L697,255Z" fill="#32934f" stroke="#32934f" stroke-width="1.51"/><path d="M672,39L662,75L711,50Z" fill="#7eb36f" stroke="#7eb36f" stroke-width="1.51"/><path d="M-9,-65L108,-37L355,-66Z" fill="#edf8c0" stroke="#edf8c0" stroke-width="1.51"/><path d="M669,169L669,224L697,213Z" fill="#419a56" stroke="#419a56" stroke-width="1.51"/><path d="M669,169L697,213L698,169Z" fill="#489d59" stroke="#489d59" stroke-width="1.51"/><path d="M670,140L669,169L698,169Z" fill="#55a35e" stroke="#55a35e" stroke-width="1.51"/><path d="M693,313L659,329L699,339Z" fill="#17783e" stroke="#17783e" stroke-width="1.51"/><path d="M659,329L691,354L699,339Z" fill="#14753c" stroke="#14753c" stroke-width="1.51"/><path d="M669,224L660,278L697,255Z" fill="#2b8f4b" stroke="#2b8f4b" stroke-width="1.51"/><path d="M686,-38L626,-8L689,5Z" fill="#90bc7c" stroke="#90bc7c" stroke-width="1.51"/><path d="M660,278L659,329L693,313Z" fill="#1e7f40" stroke="#1e7f40" stroke-width="1.51"/><path d="M647,-52L626,-8L686,-38Z" fill="#92be83" stroke="#92be83" stroke-width="1.51"/><path d="M659,329L657,387L691,354Z" fill="#11733c" stroke="#11733c" stroke-width="1.51"/><path d="M626,-8L672,39L689,5Z" fill="#8bba77" stroke="#8bba77" stroke-width="1.51"/><path d="M662,75L632,136L670,140Z" fill="#6aad66" stroke="#6aad66" stroke-width="1.51"/><path d="M616,372L657,387L659,329Z" fill="#13753c" stroke="#13753c" stroke-width="1.51"/><path d="M617,82L632,136L662,75Z" fill="#73b36a" stroke="#73b36a" stroke-width="1.51"/><path d="M606,159L617,219L669,169Z" fill="#4ea55d" stroke="#4ea55d" stroke-width="1.51"/><path d="M630,262L660,278L669,224Z" fill="#2d904b" stroke="#2d904b" stroke-width="1.51"/><path d="M669,169L617,219L669,224Z" fill="#429d57" stroke="#429d57" stroke-width="1.51"/><path d="M632,136L669,169L670,140Z" fill="#5ca761" stroke="#5ca761" stroke-width="1.51"/><path d="M611,22L662,75L672,39Z" fill="#84b972" stroke="#84b972" stroke-width="1.51"/><path d="M626,-8L611,22L672,39Z" fill="#8cbd77" stroke="#8cbd77" stroke-width="1.51"/><path d="M607,320L659,329L660,278Z" fill="#218142" stroke="#218142" stroke-width="1.51"/><path d="M611,22L617,82L662,75Z" fill="#82b971" stroke="#82b971" stroke-width="1.51"/><path d="M617,219L630,262L669,224Z" fill="#349851" stroke="#349851" stroke-width="1.51"/><path d="M632,136L606,159L669,169Z" fill="#5ba961" stroke="#5ba961" stroke-width="1.51"/><path d="M611,22L596,49L617,82Z" fill="#87bf75" stroke="#87bf75" stroke-width="1.51"/><path d="M607,320L616,372L659,329Z" fill="#1b7c40" stroke="#1b7c40" stroke-width="1.51"/><path d="M630,262L607,320L660,278Z" fill="#278946" stroke="#278946" stroke-width="1.51"/><path d="M616,372L635,401L657,387Z" fill="#136f3a" stroke="#136f3a" stroke-width="1.51"/><path d="M590,292L607,320L630,262Z" fill="#298b48" stroke="#298b48" stroke-width="1.51"/><path d="M590,-55L626,-8L647,-52Z" fill="#96c388" stroke="#96c388" stroke-width="1.51"/><path d="M108,-37L236,-35L355,-66Z" fill="#def2b5" stroke="#def2b5" stroke-width="1.51"/><path d="M606,159L596,160L617,219Z" fill="#53a960" stroke="#53a960" stroke-width="1.51"/><path d="M600,261L590,292L630,262Z" fill="#2f924c" stroke="#2f924c" stroke-width="1.51"/><path d="M617,219L600,261L630,262Z" fill="#339850" stroke="#339850" stroke-width="1.51"/><path d="M575,97L566,120L632,136Z" fill="#71b76c" stroke="#71b76c" stroke-width="1.51"/><path d="M617,82L575,97L632,136Z" fill="#74b66d" stroke="#74b66d" stroke-width="1.51"/><path d="M616,372L573,417L635,401Z" fill="#17703c" stroke="#17703c" stroke-width="1.51"/><path d="M589,371L573,417L616,372Z" fill="#19753f" stroke="#19753f" stroke-width="1.51"/><path d="M566,120L606,159L632,136Z" fill="#66b268" stroke="#66b268" stroke-width="1.51"/><path d="M566,120L596,160L606,159Z" fill="#64b267" stroke="#64b267" stroke-width="1.51"/><path d="M607,320L589,371L616,372Z" fill="#1b7d41" stroke="#1b7d41" stroke-width="1.51"/><path d="M558,-16L611,22L626,-8Z" fill="#95c57f" stroke="#95c57f" stroke-width="1.51"/><path d="M590,-55L558,-16L626,-8Z" fill="#9ac887" stroke="#9ac887" stroke-width="1.51"/><path d="M577,232L600,261L617,219Z" fill="#389e54" stroke="#389e54" stroke-width="1.51"/><path d="M596,160L577,232L617,219Z" fill="#49a65c" stroke="#49a65c" stroke-width="1.51"/><path d="M596,49L575,97L617,82Z" fill="#80bd72" stroke="#80bd72" stroke-width="1.51"/><path d="M548,45L596,49L611,22Z" fill="#8dc47a" stroke="#8dc47a" stroke-width="1.51"/><path d="M558,-16L548,45L611,22Z" fill="#94c87f" stroke="#94c87f" stroke-width="1.51"/><path d="M523,185L577,232L596,160Z" fill="#52ad62" stroke="#52ad62" stroke-width="1.51"/><path d="M556,80L575,97L596,49Z" fill="#83c075" stroke="#83c075" stroke-width="1.51"/><path d="M541,368L589,371L607,320Z" fill="#1f8244" stroke="#1f8244" stroke-width="1.51"/><path d="M538,303L541,368L607,320Z" fill="#268948" stroke="#268948" stroke-width="1.51"/><path d="M590,292L538,303L607,320Z" fill="#2a8c49" stroke="#2a8c49" stroke-width="1.51"/><path d="M577,232L590,292L600,261Z" fill="#339850" stroke="#339850" stroke-width="1.51"/><path d="M527,395L467,411L573,417Z" fill="#227b44" stroke="#227b44" stroke-width="1.51"/><path d="M577,232L538,303L590,292Z" fill="#329750" stroke="#329750" stroke-width="1.51"/><path d="M566,120L523,185L596,160Z" fill="#64b56a" stroke="#64b56a" stroke-width="1.51"/><path d="M548,45L556,80L596,49Z" fill="#8ac579" stroke="#8ac579" stroke-width="1.51"/><path d="M449,-62L497,-46L534,-52Z" fill="#a9d89d" stroke="#a9d89d" stroke-width="1.51"/><path d="M517,248L538,303L577,232Z" fill="#399f55" stroke="#399f55" stroke-width="1.51"/><path d="M523,185L528,228L577,232Z" fill="#4aac5f" stroke="#4aac5f" stroke-width="1.51"/><path d="M541,368L573,417L589,371Z" fill="#1d7a42" stroke="#1d7a42" stroke-width="1.51"/><path d="M534,-52L558,-16L590,-55Z" fill="#9ece90" stroke="#9ece90" stroke-width="1.51"/><path d="M522,-2L548,45L558,-16Z" fill="#9ace84" stroke="#9ace84" stroke-width="1.51"/><path d="M510,158L523,185L566,120Z" fill="#67ba6d" stroke="#67ba6d" stroke-width="1.51"/><path d="M517,127L510,158L566,120Z" fill="#71be70" stroke="#71be70" stroke-width="1.51"/><path d="M541,368L527,395L573,417Z" fill="#207b43" stroke="#207b43" stroke-width="1.51"/><path d="M528,228L517,248L577,232Z" fill="#40a75b" stroke="#40a75b" stroke-width="1.51"/><path d="M556,80L566,120L575,97Z" fill="#7bbe72" stroke="#7bbe72" stroke-width="1.51"/><path d="M556,80L517,127L566,120Z" fill="#7ac073" stroke="#7ac073" stroke-width="1.51"/><path d="M522,-2L512,40L548,45Z" fill="#98cf83" stroke="#98cf83" stroke-width="1.51"/><path d="M548,45L512,40L556,80Z" fill="#8fca7d" stroke="#8fca7d" stroke-width="1.51"/><path d="M534,-52L522,-2L558,-16Z" fill="#a0d18d" stroke="#a0d18d" stroke-width="1.51"/><path d="M512,40L517,127L556,80Z" fill="#86c879" stroke="#86c879" stroke-width="1.51"/><path d="M407,389L330,394L467,411Z" fill="#418b53" stroke="#418b53" stroke-width="1.51"/><path d="M512,40L475,109L517,127Z" fill="#87ca7b" stroke="#87ca7b" stroke-width="1.51"/><path d="M517,248L502,254L538,303Z" fill="#3aa257" stroke="#3aa257" stroke-width="1.51"/><path d="M468,317L502,375L538,303Z" fill="#30924f" stroke="#30924f" stroke-width="1.51"/><path d="M538,303L502,375L541,368Z" fill="#278a4a" stroke="#278a4a" stroke-width="1.51"/><path d="M495,-19L522,-2L534,-52Z" fill="#a3d490" stroke="#a3d490" stroke-width="1.51"/><path d="M497,-46L495,-19L534,-52Z" fill="#a5d596" stroke="#a5d596" stroke-width="1.51"/><path d="M506,386L527,395L541,368Z" fill="#238146" stroke="#238146" stroke-width="1.51"/><path d="M502,375L506,386L541,368Z" fill="#258548" stroke="#258548" stroke-width="1.51"/><path d="M506,386L467,411L527,395Z" fill="#288047" stroke="#288047" stroke-width="1.51"/><path d="M502,254L468,317L538,303Z" fill="#399c54" stroke="#399c54" stroke-width="1.51"/><path d="M523,185L489,233L528,228Z" fill="#4eb063" stroke="#4eb063" stroke-width="1.51"/><path d="M489,233L517,248L528,228Z" fill="#45ac5e" stroke="#45ac5e" stroke-width="1.51"/><path d="M445,61L475,109L512,40Z" fill="#95d082" stroke="#95d082" stroke-width="1.51"/><path d="M495,-19L512,40L522,-2Z" fill="#a0d388" stroke="#a0d388" stroke-width="1.51"/><path d="M510,158L462,193L523,185Z" fill="#62ba6d" stroke="#62ba6d" stroke-width="1.51"/><path d="M462,193L489,233L523,185Z" fill="#59b668" stroke="#59b668" stroke-width="1.51"/><path d="M489,233L502,254L517,248Z" fill="#44ab5e" stroke="#44ab5e" stroke-width="1.51"/><path d="M479,141L510,158L517,127Z" fill="#72c173" stroke="#72c173" stroke-width="1.51"/><path d="M475,109L479,141L517,127Z" fill="#7cc577" stroke="#7cc577" stroke-width="1.51"/><path d="M448,-24L445,61L495,-19Z" fill="#a9d98e" stroke="#a9d98e" stroke-width="1.51"/><path d="M479,141L462,193L510,158Z" fill="#6cbf71" stroke="#6cbf71" stroke-width="1.51"/><path d="M495,-19L445,61L512,40Z" fill="#9fd488" stroke="#9fd488" stroke-width="1.51"/><path d="M468,317L448,370L502,375Z" fill="#359050" stroke="#359050" stroke-width="1.51"/><path d="M431,266L468,317L502,254Z" fill="#45a45a" stroke="#45a45a" stroke-width="1.51"/><path d="M502,375L467,411L506,386Z" fill="#2b8349" stroke="#2b8349" stroke-width="1.51"/><path d="M448,370L467,411L502,375Z" fill="#31874c" stroke="#31874c" stroke-width="1.51"/><path d="M489,233L446,233L502,254Z" fill="#4baf61" stroke="#4baf61" stroke-width="1.51"/><path d="M446,233L431,266L502,254Z" fill="#4dae61" stroke="#4dae61" stroke-width="1.51"/><path d="M448,-24L495,-19L497,-46Z" fill="#aad996" stroke="#aad996" stroke-width="1.51"/><path d="M449,-62L448,-24L497,-46Z" fill="#aedb9d" stroke="#aedb9d" stroke-width="1.51"/><path d="M445,152L462,193L479,141Z" fill="#72c274" stroke="#72c274" stroke-width="1.51"/><path d="M431,266L427,299L468,317Z" fill="#48a25a" stroke="#48a25a" stroke-width="1.51"/><path d="M462,193L446,233L489,233Z" fill="#58b667" stroke="#58b667" stroke-width="1.51"/><path d="M397,9L396,25L445,61Z" fill="#addc90" stroke="#addc90" stroke-width="1.51"/><path d="M397,9L445,61L448,-24Z" fill="#addb91" stroke="#addb91" stroke-width="1.51"/><path d="M445,61L424,79L475,109Z" fill="#95d183" stroke="#95d183" stroke-width="1.51"/><path d="M475,109L445,152L479,141Z" fill="#7ec778" stroke="#7ec778" stroke-width="1.51"/><path d="M424,79L445,152L475,109Z" fill="#8acd7e" stroke="#8acd7e" stroke-width="1.51"/><path d="M424,79L406,90L445,152Z" fill="#91d082" stroke="#91d082" stroke-width="1.51"/><path d="M448,370L407,389L467,411Z" fill="#38894f" stroke="#38894f" stroke-width="1.51"/><path d="M421,301L448,370L468,317Z" fill="#409955" stroke="#409955" stroke-width="1.51"/><path d="M427,299L421,301L468,317Z" fill="#469f59" stroke="#469f59" stroke-width="1.51"/><path d="M355,-66L394,-44L449,-62Z" fill="#bce2aa" stroke="#bce2aa" stroke-width="1.51"/><path d="M370,383L330,394L407,389Z" fill="#4a9156" stroke="#4a9156" stroke-width="1.51"/><path d="M421,301L396,366L448,370Z" fill="#439856" stroke="#439856" stroke-width="1.51"/><path d="M390,165L446,233L462,193Z" fill="#69be70" stroke="#69be70" stroke-width="1.51"/><path d="M445,152L390,165L462,193Z" fill="#75c476" stroke="#75c476" stroke-width="1.51"/><path d="M406,90L392,139L445,152Z" fill="#8cce80" stroke="#8cce80" stroke-width="1.51"/><path d="M390,165L380,228L446,233Z" fill="#6abe71" stroke="#6abe71" stroke-width="1.51"/><path d="M394,-44L448,-24L449,-62Z" fill="#b5dfa1" stroke="#b5dfa1" stroke-width="1.51"/><path d="M394,-44L397,9L448,-24Z" fill="#b7e09b" stroke="#b7e09b" stroke-width="1.51"/><path d="M396,366L407,389L448,370Z" fill="#409053" stroke="#409053" stroke-width="1.51"/><path d="M396,25L424,79L445,61Z" fill="#a5d98b" stroke="#a5d98b" stroke-width="1.51"/><path d="M380,228L431,266L446,233Z" fill="#59b568" stroke="#59b568" stroke-width="1.51"/><path d="M392,139L390,165L445,152Z" fill="#81ca7c" stroke="#81ca7c" stroke-width="1.51"/><path d="M363,322L396,366L421,301Z" fill="#4d9e5b" stroke="#4d9e5b" stroke-width="1.51"/><path d="M396,25L406,90L424,79Z" fill="#a4d98b" stroke="#a4d98b" stroke-width="1.51"/><path d="M409,289L421,301L427,299Z" fill="#4da45c" stroke="#4da45c" stroke-width="1.51"/><path d="M375,277L409,289L431,266Z" fill="#54ac62" stroke="#54ac62" stroke-width="1.51"/><path d="M380,228L375,277L431,266Z" fill="#5bb367" stroke="#5bb367" stroke-width="1.51"/><path d="M409,289L427,299L431,266Z" fill="#4ea75f" stroke="#4ea75f" stroke-width="1.51"/><path d="M396,25L358,71L406,90Z" fill="#a9db8d" stroke="#a9db8d" stroke-width="1.51"/><path d="M409,289L363,322L421,301Z" fill="#50a45d" stroke="#50a45d" stroke-width="1.51"/><path d="M108,-37L195,-28L236,-35Z" fill="#e7f5b5" stroke="#e7f5b5" stroke-width="1.51"/><path d="M361,180L380,228L390,165Z" fill="#78c578" stroke="#78c578" stroke-width="1.51"/><path d="M363,322L358,337L396,366Z" fill="#509e5b" stroke="#509e5b" stroke-width="1.51"/><path d="M394,-44L367,-18L397,9Z" fill="#bde39d" stroke="#bde39d" stroke-width="1.51"/><path d="M358,71L392,139L406,90Z" fill="#9cd687" stroke="#9cd687" stroke-width="1.51"/><path d="M375,277L363,322L409,289Z" fill="#56a860" stroke="#56a860" stroke-width="1.51"/><path d="M396,366L370,383L407,389Z" fill="#459256" stroke="#459256" stroke-width="1.51"/><path d="M358,71L332,154L392,139Z" fill="#99d586" stroke="#99d586" stroke-width="1.51"/><path d="M358,337L370,383L396,366Z" fill="#4b9859" stroke="#4b9859" stroke-width="1.51"/><path d="M348,27L358,71L396,25Z" fill="#b4df93" stroke="#b4df93" stroke-width="1.51"/><path d="M348,27L396,25L397,9Z" fill="#b6e195" stroke="#b6e195" stroke-width="1.51"/><path d="M367,-18L348,27L397,9Z" fill="#bce399" stroke="#bce399" stroke-width="1.51"/><path d="M361,180L390,165L392,139Z" fill="#84cb7d" stroke="#84cb7d" stroke-width="1.51"/><path d="M355,-66L367,-18L394,-44Z" fill="#c1e5a7" stroke="#c1e5a7" stroke-width="1.51"/><path d="M332,154L361,180L392,139Z" fill="#8acd80" stroke="#8acd80" stroke-width="1.51"/><path d="M345,228L375,277L380,228Z" fill="#65ba6d" stroke="#65ba6d" stroke-width="1.51"/><path d="M297,116L332,154L358,71Z" fill="#a3d98a" stroke="#a3d98a" stroke-width="1.51"/><path d="M361,180L345,228L380,228Z" fill="#73c274" stroke="#73c274" stroke-width="1.51"/><path d="M355,-66L329,-29L367,-18Z" fill="#c6e7a8" stroke="#c6e7a8" stroke-width="1.51"/><path d="M358,337L330,394L370,383Z" fill="#50975a" stroke="#50975a" stroke-width="1.51"/><path d="M345,228L291,275L375,277Z" fill="#69b86c" stroke="#69b86c" stroke-width="1.51"/><path d="M320,329L363,322L375,277Z" fill="#5aa760" stroke="#5aa760" stroke-width="1.51"/><path d="M291,275L320,329L375,277Z" fill="#64ae65" stroke="#64ae65" stroke-width="1.51"/><path d="M308,371L330,394L358,337Z" fill="#559b5c" stroke="#559b5c" stroke-width="1.51"/><path d="M331,61L297,116L358,71Z" fill="#afde8f" stroke="#afde8f" stroke-width="1.51"/><path d="M348,27L331,61L358,71Z" fill="#b5e193" stroke="#b5e193" stroke-width="1.51"/><path d="M329,-29L348,27L367,-18Z" fill="#c4e69d" stroke="#c4e69d" stroke-width="1.51"/><path d="M320,329L308,371L358,337Z" fill="#5aa15f" stroke="#5aa15f" stroke-width="1.51"/><path d="M295,174L345,228L361,180Z" fill="#81c97b" stroke="#81c97b" stroke-width="1.51"/><path d="M320,329L358,337L363,322Z" fill="#58a35f" stroke="#58a35f" stroke-width="1.51"/><path d="M329,-29L306,16L348,27Z" fill="#c5e79d" stroke="#c5e79d" stroke-width="1.51"/><path d="M332,154L295,174L361,180Z" fill="#8ccf80" stroke="#8ccf80" stroke-width="1.51"/><path d="M299,73L297,116L331,61Z" fill="#b3e091" stroke="#b3e091" stroke-width="1.51"/><path d="M236,-35L329,-29L355,-66Z" fill="#cfebae" stroke="#cfebae" stroke-width="1.51"/><path d="M290,227L291,275L345,228Z" fill="#73c072" stroke="#73c072" stroke-width="1.51"/><path d="M295,174L290,227L345,228Z" fill="#80c879" stroke="#80c879" stroke-width="1.51"/><path d="M306,16L331,61L348,27Z" fill="#bee498" stroke="#bee498" stroke-width="1.51"/><path d="M236,-35L243,-27L329,-29Z" fill="#d6eeac" stroke="#d6eeac" stroke-width="1.51"/><path d="M306,16L299,73L331,61Z" fill="#bee496" stroke="#bee496" stroke-width="1.51"/><path d="M297,116L295,174L332,154Z" fill="#9ad586" stroke="#9ad586" stroke-width="1.51"/><path d="M308,371L284,394L330,394Z" fill="#59975c" stroke="#59975c" stroke-width="1.51"/><path d="M243,-27L306,16L329,-29Z" fill="#d0eca4" stroke="#d0eca4" stroke-width="1.51"/><path d="M263,22L299,73L306,16Z" fill="#c6e89b" stroke="#c6e89b" stroke-width="1.51"/><path d="M264,333L308,371L320,329Z" fill="#61a462" stroke="#61a462" stroke-width="1.51"/><path d="M291,275L264,333L320,329Z" fill="#68ac65" stroke="#68ac65" stroke-width="1.51"/><path d="M243,-27L244,7L263,22Z" fill="#d6eea5" stroke="#d6eea5" stroke-width="1.51"/><path d="M251,179L295,174L297,116Z" fill="#9cd687" stroke="#9cd687" stroke-width="1.51"/><path d="M269,91L297,116L299,73Z" fill="#b4e091" stroke="#b4e091" stroke-width="1.51"/><path d="M243,-27L263,22L306,16Z" fill="#d1eda2" stroke="#d1eda2" stroke-width="1.51"/><path d="M248,360L284,394L308,371Z" fill="#609d5f" stroke="#609d5f" stroke-width="1.51"/><path d="M264,333L248,360L308,371Z" fill="#64a463" stroke="#64a463" stroke-width="1.51"/><path d="M290,227L265,271L291,275Z" fill="#76be71" stroke="#76be71" stroke-width="1.51"/><path d="M251,179L290,227L295,174Z" fill="#8dcf80" stroke="#8dcf80" stroke-width="1.51"/><path d="M245,111L251,179L297,116Z" fill="#a9db8c" stroke="#a9db8c" stroke-width="1.51"/><path d="M255,236L265,271L290,227Z" fill="#7bc475" stroke="#7bc475" stroke-width="1.51"/><path d="M265,271L264,333L291,275Z" fill="#70b36a" stroke="#70b36a" stroke-width="1.51"/><path d="M263,22L269,91L299,73Z" fill="#c1e697" stroke="#c1e697" stroke-width="1.51"/><path d="M251,179L255,236L290,227Z" fill="#88cb7c" stroke="#88cb7c" stroke-width="1.51"/><path d="M269,91L245,111L297,116Z" fill="#b3e090" stroke="#b3e090" stroke-width="1.51"/><path d="M263,22L201,49L269,91Z" fill="#caea9c" stroke="#caea9c" stroke-width="1.51"/><path d="M248,360L209,398L284,394Z" fill="#659d61" stroke="#659d61" stroke-width="1.51"/><path d="M245,111L204,157L251,179Z" fill="#a8db8d" stroke="#a8db8d" stroke-width="1.51"/><path d="M251,179L225,212L255,236Z" fill="#8ece80" stroke="#8ece80" stroke-width="1.51"/><path d="M215,14L201,49L263,22Z" fill="#d4eea2" stroke="#d4eea2" stroke-width="1.51"/><path d="M227,275L215,327L264,333Z" fill="#73b16a" stroke="#73b16a" stroke-width="1.51"/><path d="M227,275L264,333L265,271Z" fill="#74b56b" stroke="#74b56b" stroke-width="1.51"/><path d="M230,107L245,111L269,91Z" fill="#b8e293" stroke="#b8e293" stroke-width="1.51"/><path d="M201,49L230,107L269,91Z" fill="#c2e698" stroke="#c2e698" stroke-width="1.51"/><path d="M244,7L215,14L263,22Z" fill="#d4eea3" stroke="#d4eea3" stroke-width="1.51"/><path d="M255,236L227,275L265,271Z" fill="#7cbf73" stroke="#7cbf73" stroke-width="1.51"/><path d="M215,327L248,360L264,333Z" fill="#6da966" stroke="#6da966" stroke-width="1.51"/><path d="M211,115L204,157L245,111Z" fill="#b4e091" stroke="#b4e091" stroke-width="1.51"/><path d="M189,390L111,400L209,398Z" fill="#729f66" stroke="#729f66" stroke-width="1.51"/><path d="M230,107L211,115L245,111Z" fill="#b9e293" stroke="#b9e293" stroke-width="1.51"/><path d="M225,212L227,275L255,236Z" fill="#83c778" stroke="#83c778" stroke-width="1.51"/><path d="M204,157L225,212L251,179Z" fill="#9cd587" stroke="#9cd587" stroke-width="1.51"/><path d="M243,-27L215,14L244,7Z" fill="#daf0a6" stroke="#daf0a6" stroke-width="1.51"/><path d="M215,327L197,351L248,360Z" fill="#70aa68" stroke="#70aa68" stroke-width="1.51"/><path d="M197,351L209,398L248,360Z" fill="#6da465" stroke="#6da465" stroke-width="1.51"/><path d="M195,-28L215,14L236,-35Z" fill="#dff2ac" stroke="#dff2ac" stroke-width="1.51"/><path d="M236,-35L215,14L243,-27Z" fill="#dcf1ab" stroke="#dcf1ab" stroke-width="1.51"/><path d="M-9,-65L21,-48L108,-37Z" fill="#fafdc9" stroke="#fafdc9" stroke-width="1.51"/><path d="M225,212L166,227L227,275Z" fill="#8acb7c" stroke="#8acb7c" stroke-width="1.51"/><path d="M166,227L189,285L227,275Z" fill="#87c378" stroke="#87c378" stroke-width="1.51"/><path d="M189,285L215,327L227,275Z" fill="#7cb76f" stroke="#7cb76f" stroke-width="1.51"/><path d="M201,49L211,115L230,107Z" fill="#c3e798" stroke="#c3e798" stroke-width="1.51"/><path d="M197,351L189,390L209,398Z" fill="#6fa265" stroke="#6fa265" stroke-width="1.51"/><path d="M201,49L173,66L211,115Z" fill="#cbea9c" stroke="#cbea9c" stroke-width="1.51"/><path d="M195,-28L191,3L215,14Z" fill="#e0f3a9" stroke="#e0f3a9" stroke-width="1.51"/><path d="M204,157L172,161L225,212Z" fill="#a3d88a" stroke="#a3d88a" stroke-width="1.51"/><path d="M172,161L166,227L225,212Z" fill="#9cd487" stroke="#9cd487" stroke-width="1.51"/><path d="M185,52L173,66L201,49Z" fill="#d5eea0" stroke="#d5eea0" stroke-width="1.51"/><path d="M173,66L164,125L211,115Z" fill="#c5e799" stroke="#c5e799" stroke-width="1.51"/><path d="M164,125L204,157L211,115Z" fill="#b7e193" stroke="#b7e193" stroke-width="1.51"/><path d="M191,3L201,49L215,14Z" fill="#daf0a5" stroke="#daf0a5" stroke-width="1.51"/><path d="M154,304L197,351L215,327Z" fill="#7ab16d" stroke="#7ab16d" stroke-width="1.51"/><path d="M189,285L154,304L215,327Z" fill="#7eb66f" stroke="#7eb66f" stroke-width="1.51"/><path d="M166,227L151,249L189,285Z" fill="#8dc87c" stroke="#8dc87c" stroke-width="1.51"/><path d="M191,3L185,52L201,49Z" fill="#d8f0a4" stroke="#d8f0a4" stroke-width="1.51"/><path d="M164,125L172,161L204,157Z" fill="#b3df91" stroke="#b3df91" stroke-width="1.51"/><path d="M157,375L111,400L189,390Z" fill="#76a268" stroke="#76a268" stroke-width="1.51"/><path d="M147,13L185,52L191,3Z" fill="#dff2a7" stroke="#dff2a7" stroke-width="1.51"/><path d="M157,375L189,390L197,351Z" fill="#74a668" stroke="#74a668" stroke-width="1.51"/><path d="M147,13L191,3L195,-28Z" fill="#e5f5ac" stroke="#e5f5ac" stroke-width="1.51"/><path d="M154,304L157,375L197,351Z" fill="#7aaf6c" stroke="#7aaf6c" stroke-width="1.51"/><path d="M108,-37L147,13L195,-28Z" fill="#ebf7b3" stroke="#ebf7b3" stroke-width="1.51"/><path d="M147,13L141,50L185,52Z" fill="#def2a6" stroke="#def2a6" stroke-width="1.51"/><path d="M135,159L166,227L172,161Z" fill="#a9db8d" stroke="#a9db8d" stroke-width="1.51"/><path d="M151,249L154,304L189,285Z" fill="#88c176" stroke="#88c176" stroke-width="1.51"/><path d="M154,304L136,308L157,375Z" fill="#80b370" stroke="#80b370" stroke-width="1.51"/><path d="M141,50L173,66L185,52Z" fill="#d7efa2" stroke="#d7efa2" stroke-width="1.51"/><path d="M136,308L111,360L157,375Z" fill="#7eb06f" stroke="#7eb06f" stroke-width="1.51"/><path d="M114,78L129,125L164,125Z" fill="#c9e99c" stroke="#c9e99c" stroke-width="1.51"/><path d="M135,159L131,235L166,227Z" fill="#a1d689" stroke="#a1d689" stroke-width="1.51"/><path d="M164,125L135,159L172,161Z" fill="#b7e193" stroke="#b7e193" stroke-width="1.51"/><path d="M114,78L164,125L173,66Z" fill="#ceeb9e" stroke="#ceeb9e" stroke-width="1.51"/><path d="M141,50L114,78L173,66Z" fill="#d8f0a3" stroke="#d8f0a3" stroke-width="1.51"/><path d="M151,249L136,308L154,304Z" fill="#89bf76" stroke="#89bf76" stroke-width="1.51"/><path d="M129,125L135,159L164,125Z" fill="#bde497" stroke="#bde497" stroke-width="1.51"/><path d="M131,235L151,249L166,227Z" fill="#95cf81" stroke="#95cf81" stroke-width="1.51"/><path d="M100,272L136,308L151,249Z" fill="#8ec37a" stroke="#8ec37a" stroke-width="1.51"/><path d="M111,360L111,400L157,375Z" fill="#7ba76c" stroke="#7ba76c" stroke-width="1.51"/><path d="M77,219L131,235L135,159Z" fill="#a6d88c" stroke="#a6d88c" stroke-width="1.51"/><path d="M131,235L100,272L151,249Z" fill="#94cc80" stroke="#94cc80" stroke-width="1.51"/><path d="M105,312L111,360L136,308Z" fill="#84b573" stroke="#84b573" stroke-width="1.51"/><path d="M73,13L141,50L147,13Z" fill="#e5f5ac" stroke="#e5f5ac" stroke-width="1.51"/><path d="M108,-37L73,13L147,13Z" fill="#eef9b2" stroke="#eef9b2" stroke-width="1.51"/><path d="M63,168L77,219L135,159Z" fill="#b1de93" stroke="#b1de93" stroke-width="1.51"/><path d="M100,272L105,312L136,308Z" fill="#8bbd77" stroke="#8bbd77" stroke-width="1.51"/><path d="M72,45L114,78L141,50Z" fill="#dff3a7" stroke="#dff3a7" stroke-width="1.51"/><path d="M73,13L72,45L141,50Z" fill="#e6f5ac" stroke="#e6f5ac" stroke-width="1.51"/><path d="M50,389L-21,422L95,402Z" fill="#81a370" stroke="#81a370" stroke-width="1.51"/><path d="M21,-48L65,-26L108,-37Z" fill="#f7fcc2" stroke="#f7fcc2" stroke-width="1.51"/><path d="M105,312L91,344L111,360Z" fill="#84b373" stroke="#84b373" stroke-width="1.51"/><path d="M87,142L63,168L135,159Z" fill="#bbe398" stroke="#bbe398" stroke-width="1.51"/><path d="M129,125L87,142L135,159Z" fill="#bee498" stroke="#bee498" stroke-width="1.51"/><path d="M114,78L71,106L129,125Z" fill="#cfeca0" stroke="#cfeca0" stroke-width="1.51"/><path d="M77,219L100,272L131,235Z" fill="#9ad084" stroke="#9ad084" stroke-width="1.51"/><path d="M71,106L87,142L129,125Z" fill="#c8e99d" stroke="#c8e99d" stroke-width="1.51"/><path d="M65,-26L73,13L108,-37Z" fill="#f3fab8" stroke="#f3fab8" stroke-width="1.51"/><path d="M95,402L111,400L111,360Z" fill="#7ca56c" stroke="#7ca56c" stroke-width="1.51"/><path d="M91,344L95,402L111,360Z" fill="#7fac70" stroke="#7fac70" stroke-width="1.51"/><path d="M72,45L71,106L114,78Z" fill="#dbf1a6" stroke="#dbf1a6" stroke-width="1.51"/><path d="M91,344L50,389L95,402Z" fill="#80aa70" stroke="#80aa70" stroke-width="1.51"/><path d="M77,219L56,265L100,272Z" fill="#9ace84" stroke="#9ace84" stroke-width="1.51"/><path d="M100,272L56,265L105,312Z" fill="#92c37c" stroke="#92c37c" stroke-width="1.51"/><path d="M20,301L91,344L105,312Z" fill="#8cba78" stroke="#8cba78" stroke-width="1.51"/><path d="M56,265L20,301L105,312Z" fill="#92c17c" stroke="#92c17c" stroke-width="1.51"/><path d="M40,368L50,389L91,344Z" fill="#84af73" stroke="#84af73" stroke-width="1.51"/><path d="M71,106L51,126L87,142Z" fill="#cbeaa0" stroke="#cbeaa0" stroke-width="1.51"/><path d="M20,301L40,368L91,344Z" fill="#8bb677" stroke="#8bb677" stroke-width="1.51"/><path d="M25,66L71,106L72,45Z" fill="#e0f3aa" stroke="#e0f3aa" stroke-width="1.51"/><path d="M63,168L37,213L77,219Z" fill="#afdc92" stroke="#afdc92" stroke-width="1.51"/><path d="M51,126L63,168L87,142Z" fill="#c4e69c" stroke="#c4e69c" stroke-width="1.51"/><path d="M51,126L38,156L63,168Z" fill="#c4e69d" stroke="#c4e69d" stroke-width="1.51"/><path d="M30,42L72,45L73,13Z" fill="#ecf8b0" stroke="#ecf8b0" stroke-width="1.51"/><path d="M37,213L56,265L77,219Z" fill="#a2d58a" stroke="#a2d58a" stroke-width="1.51"/><path d="M30,42L25,66L72,45Z" fill="#e9f7af" stroke="#e9f7af" stroke-width="1.51"/><path d="M65,-26L24,19L73,13Z" fill="#f4fbb6" stroke="#f4fbb6" stroke-width="1.51"/><path d="M24,19L30,42L73,13Z" fill="#eff9b3" stroke="#eff9b3" stroke-width="1.51"/><path d="M25,66L51,126L71,106Z" fill="#d8efa5" stroke="#d8efa5" stroke-width="1.51"/><path d="M38,156L37,213L63,168Z" fill="#b8e198" stroke="#b8e198" stroke-width="1.51"/><path d="M21,-48L24,19L65,-26Z" fill="#f8fcbe" stroke="#f8fcbe" stroke-width="1.51"/><path d="M8,182L37,213L38,156Z" fill="#b7e09a" stroke="#b7e09a" stroke-width="1.51"/><path d="M25,66L-2,92L51,126Z" fill="#dbf0ab" stroke="#dbf0ab" stroke-width="1.51"/><path d="M20,301L1,362L40,368Z" fill="#8bb67b" stroke="#8bb67b" stroke-width="1.51"/><path d="M-11,284L20,301L56,265Z" fill="#98c684" stroke="#98c684" stroke-width="1.51"/><path d="M-8,232L-11,284L56,265Z" fill="#9ece8b" stroke="#9ece8b" stroke-width="1.51"/><path d="M37,213L-8,232L56,265Z" fill="#a3d48d" stroke="#a3d48d" stroke-width="1.51"/><path d="M1,362L-21,422L50,389Z" fill="#84a877" stroke="#84a877" stroke-width="1.51"/><path d="M-15,116L38,156L51,126Z" fill="#cceaa4" stroke="#cceaa4" stroke-width="1.51"/><path d="M-2,92L-15,116L51,126Z" fill="#d5eeaa" stroke="#d5eeaa" stroke-width="1.51"/><path d="M40,368L1,362L50,389Z" fill="#86ad76" stroke="#86ad76" stroke-width="1.51"/><path d="M-19,327L1,362L20,301Z" fill="#8eb980" stroke="#8eb980" stroke-width="1.51"/><path d="M21,-48L-12,19L24,19Z" fill="#f8fcbf" stroke="#f8fcbf" stroke-width="1.51"/><path d="M-15,116L8,182L38,156Z" fill="#c5e7a4" stroke="#c5e7a4" stroke-width="1.51"/><path d="M8,182L-8,232L37,213Z" fill="#afdb97" stroke="#afdb97" stroke-width="1.51"/><path d="M-11,47L25,66L30,42Z" fill="#eaf7b4" stroke="#eaf7b4" stroke-width="1.51"/><path d="M24,19L-11,47L30,42Z" fill="#eef8b7" stroke="#eef8b7" stroke-width="1.51"/><path d="M-9,-65L-12,19L21,-48Z" fill="#fafdca" stroke="#fafdca" stroke-width="1.51"/><path d="M-12,19L-11,47L24,19Z" fill="#f0f9bb" stroke="#f0f9bb" stroke-width="1.51"/><path d="M-11,47L-2,92L25,66Z" fill="#e5f5b3" stroke="#e5f5b3" stroke-width="1.51"/><path d="M-29,196L-8,232L8,182Z" fill="#b1dc9d" stroke="#b1dc9d" stroke-width="1.51"/><path d="M-11,284L-19,327L20,301Z" fill="#94bf84" stroke="#94bf84" stroke-width="1.51"/><path d="M-71,2L-12,19L-9,-65Z" fill="#fafdca" stroke="#fafdca" stroke-width="1.51"/><path d="M-54,-69L-71,2L-9,-65Z" fill="#fdfed7" stroke="#fdfed7" stroke-width="1.51"/><path d="M-39,275L-11,284L-8,232Z" fill="#9ecd90" stroke="#9ecd90" stroke-width="1.51"/><path d="M-11,47L-31,66L-2,92Z" fill="#e5f5b7" stroke="#e5f5b7" stroke-width="1.51"/><path d="M-46,390L-21,422L1,362Z" fill="#85a87d" stroke="#85a87d" stroke-width="1.51"/><path d="M-15,116L-42,124L8,182Z" fill="#cae9aa" stroke="#cae9aa" stroke-width="1.51"/><path d="M-42,124L-29,196L8,182Z" fill="#c0e4a6" stroke="#c0e4a6" stroke-width="1.51"/><path d="M-19,327L-57,343L1,362Z" fill="#8db683" stroke="#8db683" stroke-width="1.51"/><path d="M-57,343L-46,390L1,362Z" fill="#89b183" stroke="#89b183" stroke-width="1.51"/><path d="M-31,66L-15,116L-2,92Z" fill="#ddf1b3" stroke="#ddf1b3" stroke-width="1.51"/><path d="M-39,275L-60,319L-19,327Z" fill="#94bf8a" stroke="#94bf8a" stroke-width="1.51"/><path d="M-31,66L-42,124L-15,116Z" fill="#daf0b4" stroke="#daf0b4" stroke-width="1.51"/><path d="M-71,2L-44,32L-12,19Z" fill="#f4fbc5" stroke="#f4fbc5" stroke-width="1.51"/><path d="M-12,19L-44,32L-11,47Z" fill="#f0f9be" stroke="#f0f9be" stroke-width="1.51"/><path d="M-39,275L-19,327L-11,284Z" fill="#96c389" stroke="#96c389" stroke-width="1.51"/><path d="M-29,196L-69,220L-8,232Z" fill="#adda9e" stroke="#adda9e" stroke-width="1.51"/><path d="M-69,220L-39,275L-8,232Z" fill="#a4d498" stroke="#a4d498" stroke-width="1.51"/><path d="M-44,32L-31,66L-11,47Z" fill="#ecf8bd" stroke="#ecf8bd" stroke-width="1.51"/><path d="M-60,319L-57,343L-19,327Z" fill="#90ba88" stroke="#90ba88" stroke-width="1.51"/><path d="M-42,124L-69,220L-29,196Z" fill="#bbe2a9" stroke="#bbe2a9" stroke-width="1.51"/><path d="M-44,32L-42,124L-31,66Z" fill="#e4f4ba" stroke="#e4f4ba" stroke-width="1.51"/><path d="M-44,32L-71,2L-42,124Z" fill="#ecf7c0" stroke="#ecf7c0" stroke-width="1.51"/><path d="M-69,220L-60,319L-39,275Z" fill="#9dcb95" stroke="#9dcb95" stroke-width="1.51"/><path d="M-71,2L-69,220L-42,124Z" fill="#d6eeb7" stroke="#d6eeb7" stroke-width="1.51"/></svg>